<?xml version="1.0" standalone="no"?>
<!DOCTYPE svg PUBLIC "-//W3C//DTD SVG 20010904//EN"
 "http://www.w3.org/TR/2001/REC-SVG-20010904/DTD/svg10.dtd">
<svg version="1.0" xmlns="http://www.w3.org/2000/svg"
 width="570.000000pt" height="570.000000pt" viewBox="0 0 570.000000 570.000000"
 preserveAspectRatio="xMidYMid meet">
<metadata>
Created by potrace 1.14, written by Peter Selinger 2001-2017
</metadata>
<g transform="translate(0.000000,570.000000) scale(0.100000,-0.100000)"
fill="#000000" stroke="none">
<path d="M190 4233 c0 -5 28 -30 63 -58 121 -97 347 -341 413 -446 15 -24 45
-62 66 -85 21 -22 46 -51 55 -65 9 -13 19 -26 23 -29 3 -3 31 -39 62 -80 30
-41 65 -84 77 -94 11 -11 21 -24 21 -29 0 -5 31 -49 69 -97 38 -49 77 -103 86
-121 10 -18 32 -53 50 -79 50 -71 64 -103 71 -163 6 -48 3 -64 -23 -119 -52
-111 -159 -263 -239 -343 -28 -27 -66 -70 -85 -95 -63 -84 -156 -186 -440
-485 -62 -66 -151 -149 -196 -185 -45 -36 -82 -68 -83 -72 0 -4 158 -4 350 -1
l351 6 66 66 c61 61 86 91 199 237 21 28 75 94 119 148 145 174 306 376 362
453 43 58 102 168 103 190 0 6 4 13 10 15 5 2 19 46 31 98 23 105 18 143 -25
210 -13 19 -45 70 -72 114 -27 43 -59 89 -71 101 -13 12 -23 27 -23 34 0 6 -4
11 -9 11 -5 0 -12 8 -16 19 -3 10 -29 50 -58 89 -28 39 -77 107 -107 152 -30
45 -60 86 -65 93 -6 7 -24 30 -40 52 -17 22 -36 44 -42 48 -7 4 -13 13 -13 19
0 5 -14 28 -32 50 -17 22 -42 55 -55 74 -12 19 -27 40 -33 47 -39 47 -100 132
-100 140 0 8 -20 34 -79 102 -9 11 -27 35 -40 53 l-22 32 -340 0 c-186 0 -339
-3 -339 -7z"/>
<path d="M290 2977 c0 -508 3 -945 6 -970 l7 -47 41 32 c43 33 100 85 227 208
43 41 96 90 118 108 l41 33 0 525 c0 381 -3 531 -12 547 -6 12 -58 74 -115
137 -57 63 -118 131 -136 150 -17 19 -55 64 -85 100 -30 36 -63 73 -73 83 -19
17 -19 -1 -19 -906z"/>
<path d="M2534 3672 l-312 -2 -20 -53 c-25 -63 -78 -243 -102 -348 -9 -42 -20
-81 -24 -87 -6 -11 -68 -234 -96 -352 -10 -41 -44 -160 -75 -265 -31 -104 -67
-226 -80 -270 -12 -44 -43 -142 -69 -218 -25 -75 -46 -139 -46 -142 0 -3 110
-5 243 -5 l244 0 12 58 c7 31 20 78 28 105 l15 47 494 0 c389 0 494 3 494 13
0 46 -68 358 -142 652 -27 110 -54 225 -59 255 -5 30 -16 78 -24 105 -15 48
-52 213 -81 360 -19 94 -41 142 -68 147 -11 1 -161 2 -332 0z m39 -599 c9 -38
21 -93 26 -123 6 -30 19 -98 31 -150 37 -170 50 -242 45 -251 -3 -4 -68 -8
-145 -7 -151 0 -150 0 -129 55 6 15 19 64 29 108 47 199 61 256 87 342 16 51
31 93 34 93 4 0 13 -30 22 -67z"/>
<path d="M5057 3672 c-9 -2 -17 -9 -17 -16 0 -7 -11 -33 -24 -58 -13 -24 -27
-55 -31 -68 -4 -14 -41 -94 -81 -178 -41 -85 -74 -156 -74 -158 0 -13 -84
-174 -90 -174 -8 0 -100 185 -100 201 0 4 -14 28 -30 53 -17 24 -69 124 -116
220 l-85 176 -264 0 c-146 0 -265 -4 -265 -8 0 -4 13 -26 29 -48 16 -21 41
-64 56 -94 15 -30 35 -71 45 -90 10 -19 34 -65 53 -102 19 -37 44 -80 54 -95
11 -15 30 -50 42 -77 12 -26 32 -65 45 -85 13 -20 42 -74 66 -121 24 -47 58
-107 76 -135 18 -27 57 -99 87 -158 31 -59 60 -114 67 -121 7 -9 7 -22 1 -37
-5 -13 -18 -55 -29 -94 -24 -82 -112 -362 -143 -453 -12 -35 -19 -65 -16 -68
2 -3 35 2 73 9 38 8 143 25 234 38 91 13 168 28 173 34 4 5 16 37 26 70 18 55
50 129 132 301 16 34 29 65 29 69 0 4 14 35 31 69 17 33 39 82 49 107 16 41
100 226 188 419 16 36 33 75 37 88 3 12 29 67 56 122 27 56 49 102 49 104 0 3
15 37 34 78 19 40 55 118 80 172 25 55 44 101 42 103 -5 5 -465 9 -489 5z"/>
<path d="M3340 2905 l0 -766 467 3 468 3 16 115 c9 63 19 150 23 193 l7 77
-261 0 c-228 0 -261 2 -267 16 -3 9 -6 264 -7 567 l-1 552 -222 3 -223 2 0
-765z"/>
</g>
</svg>
